<svg width="1024" height="1024" viewBox="0 0 1024 1024" fill="none" xmlns="http://www.w3.org/2000/svg">
  <defs>
    <linearGradient id="bg-gradient" x1="120" y1="96" x2="916" y2="932" gradientUnits="userSpaceOnUse">
      <stop offset="0" stop-color="#F8FBFF"/>
      <stop offset="0.44" stop-color="#DFEBFF"/>
      <stop offset="1" stop-color="#BDD2FF"/>
    </linearGradient>
    <linearGradient id="inner-gradient" x1="224" y1="204" x2="828" y2="860" gradientUnits="userSpaceOnUse">
      <stop offset="0" stop-color="#2F6CFF"/>
      <stop offset="0.58" stop-color="#3E56E8"/>
      <stop offset="1" stop-color="#2F35A3"/>
    </linearGradient>
    <linearGradient id="flare" x1="280" y1="196" x2="700" y2="460" gradientUnits="userSpaceOnUse">
      <stop offset="0" stop-color="white" stop-opacity="0.68"/>
      <stop offset="1" stop-color="white" stop-opacity="0"/>
    </linearGradient>
    <filter id="drop-shadow" x="40" y="40" width="944" height="944" filterUnits="userSpaceOnUse" color-interpolation-filters="sRGB">
      <feFlood flood-opacity="0" result="BackgroundImageFix"/>
      <feColorMatrix in="SourceAlpha" type="matrix" values="0 0 0 0 0 0 0 0 0 0 0 0 0 0 0 0 0 0 127 0" result="hardAlpha"/>
      <feOffset dy="20"/>
      <feGaussianBlur stdDeviation="22"/>
      <feComposite in2="hardAlpha" operator="out"/>
      <feColorMatrix type="matrix" values="0 0 0 0 0.0627451 0 0 0 0 0.129412 0 0 0 0 0.376471 0 0 0 0.28 0"/>
      <feBlend mode="normal" in2="BackgroundImageFix" result="effect1_dropShadow_1_1"/>
      <feBlend mode="normal" in="SourceGraphic" in2="effect1_dropShadow_1_1" result="shape"/>
    </filter>
    <filter id="soften" x="188" y="188" width="648" height="648" filterUnits="userSpaceOnUse" color-interpolation-filters="sRGB">
      <feFlood flood-opacity="0" result="BackgroundImageFix"/>
      <feBlend mode="normal" in="SourceGraphic" in2="BackgroundImageFix" result="shape"/>
      <feGaussianBlur stdDeviation="0.35" result="effect1_foregroundBlur_1_1"/>
    </filter>
  </defs>

  <!-- main icon plate on transparent surround -->
  <g filter="url(#drop-shadow)">
    <path d="M 928.00 512.00 L 927.87 625.94 L 927.49 662.30 L 926.84 688.67 L 925.94 710.07 L 924.78 728.37 L 923.36 744.47 L 921.68 758.92 L 919.73 772.07 L 917.52 784.13 L 915.03 795.29 L 912.27 805.66 L 909.23 815.33 L 905.91 824.38 L 902.30 832.87 L 898.40 840.84 L 894.19 848.34 L 889.67 855.40 L 884.83 862.03 L 879.66 868.28 L 874.15 874.15 L 868.28 879.66 L 862.03 884.83 L 855.40 889.67 L 848.34 894.19 L 840.84 898.40 L 832.87 902.30 L 824.38 905.91 L 815.33 909.23 L 805.66 912.27 L 795.29 915.03 L 784.13 917.52 L 772.07 919.73 L 758.92 921.68 L 744.47 923.36 L 728.37 924.78 L 710.07 925.94 L 688.67 926.84 L 662.30 927.49 L 625.94 927.87 L 512.00 928.00 L 398.06 927.87 L 361.70 927.49 L 335.33 926.84 L 313.93 925.94 L 295.63 924.78 L 279.53 923.36 L 265.08 921.68 L 251.93 919.73 L 239.87 917.52 L 228.71 915.03 L 218.34 912.27 L 208.67 909.23 L 199.62 905.91 L 191.13 902.30 L 183.16 898.40 L 175.66 894.19 L 168.60 889.67 L 161.97 884.83 L 155.72 879.66 L 149.85 874.15 L 144.34 868.28 L 139.17 862.03 L 134.33 855.40 L 129.81 848.34 L 125.60 840.84 L 121.70 832.87 L 118.09 824.38 L 114.77 815.33 L 111.73 805.66 L 108.97 795.29 L 106.48 784.13 L 104.27 772.07 L 102.32 758.92 L 100.64 744.47 L 99.22 728.37 L 98.06 710.07 L 97.16 688.67 L 96.51 662.30 L 96.13 625.94 L 96.00 512.00 L 96.13 398.06 L 96.51 361.70 L 97.16 335.33 L 98.06 313.93 L 99.22 295.63 L 100.64 279.53 L 102.32 265.08 L 104.27 251.93 L 106.48 239.87 L 108.97 228.71 L 111.73 218.34 L 114.77 208.67 L 118.09 199.62 L 121.70 191.13 L 125.60 183.16 L 129.81 175.66 L 134.33 168.60 L 139.17 161.97 L 144.34 155.72 L 149.85 149.85 L 155.72 144.34 L 161.97 139.17 L 168.60 134.33 L 175.66 129.81 L 183.16 125.60 L 191.13 121.70 L 199.62 118.09 L 208.67 114.77 L 218.34 111.73 L 228.71 108.97 L 239.87 106.48 L 251.93 104.27 L 265.08 102.32 L 279.53 100.64 L 295.63 99.22 L 313.93 98.06 L 335.33 97.16 L 361.70 96.51 L 398.06 96.13 L 512.00 96.00 L 625.94 96.13 L 662.30 96.51 L 688.67 97.16 L 710.07 98.06 L 728.37 99.22 L 744.47 100.64 L 758.92 102.32 L 772.07 104.27 L 784.13 106.48 L 795.29 108.97 L 805.66 111.73 L 815.33 114.77 L 824.38 118.09 L 832.87 121.70 L 840.84 125.60 L 848.34 129.81 L 855.40 134.33 L 862.03 139.17 L 868.28 144.34 L 874.15 149.85 L 879.66 155.72 L 884.83 161.97 L 889.67 168.60 L 894.19 175.66 L 898.40 183.16 L 902.30 191.13 L 905.91 199.62 L 909.23 208.67 L 912.27 218.34 L 915.03 228.71 L 917.52 239.87 L 919.73 251.93 L 921.68 265.08 L 923.36 279.53 L 924.78 295.63 L 925.94 313.93 L 926.84 335.33 L 927.49 361.70 L 927.87 398.06 L 928.00 512.00 Z" fill="url(#inner-gradient)"/>
    <path d="M 928.00 512.00 L 927.87 625.94 L 927.49 662.30 L 926.84 688.67 L 925.94 710.07 L 924.78 728.37 L 923.36 744.47 L 921.68 758.92 L 919.73 772.07 L 917.52 784.13 L 915.03 795.29 L 912.27 805.66 L 909.23 815.33 L 905.91 824.38 L 902.30 832.87 L 898.40 840.84 L 894.19 848.34 L 889.67 855.40 L 884.83 862.03 L 879.66 868.28 L 874.15 874.15 L 868.28 879.66 L 862.03 884.83 L 855.40 889.67 L 848.34 894.19 L 840.84 898.40 L 832.87 902.30 L 824.38 905.91 L 815.33 909.23 L 805.66 912.27 L 795.29 915.03 L 784.13 917.52 L 772.07 919.73 L 758.92 921.68 L 744.47 923.36 L 728.37 924.78 L 710.07 925.94 L 688.67 926.84 L 662.30 927.49 L 625.94 927.87 L 512.00 928.00 L 398.06 927.87 L 361.70 927.49 L 335.33 926.84 L 313.93 925.94 L 295.63 924.78 L 279.53 923.36 L 265.08 921.68 L 251.93 919.73 L 239.87 917.52 L 228.71 915.03 L 218.34 912.27 L 208.67 909.23 L 199.62 905.91 L 191.13 902.30 L 183.16 898.40 L 175.66 894.19 L 168.60 889.67 L 161.97 884.83 L 155.72 879.66 L 149.85 874.15 L 144.34 868.28 L 139.17 862.03 L 134.33 855.40 L 129.81 848.34 L 125.60 840.84 L 121.70 832.87 L 118.09 824.38 L 114.77 815.33 L 111.73 805.66 L 108.97 795.29 L 106.48 784.13 L 104.27 772.07 L 102.32 758.92 L 100.64 744.47 L 99.22 728.37 L 98.06 710.07 L 97.16 688.67 L 96.51 662.30 L 96.13 625.94 L 96.00 512.00 L 96.13 398.06 L 96.51 361.70 L 97.16 335.33 L 98.06 313.93 L 99.22 295.63 L 100.64 279.53 L 102.32 265.08 L 104.27 251.93 L 106.48 239.87 L 108.97 228.71 L 111.73 218.34 L 114.77 208.67 L 118.09 199.62 L 121.70 191.13 L 125.60 183.16 L 129.81 175.66 L 134.33 168.60 L 139.17 161.97 L 144.34 155.72 L 149.85 149.85 L 155.72 144.34 L 161.97 139.17 L 168.60 134.33 L 175.66 129.81 L 183.16 125.60 L 191.13 121.70 L 199.62 118.09 L 208.67 114.77 L 218.34 111.73 L 228.71 108.97 L 239.87 106.48 L 251.93 104.27 L 265.08 102.32 L 279.53 100.64 L 295.63 99.22 L 313.93 98.06 L 335.33 97.16 L 361.70 96.51 L 398.06 96.13 L 512.00 96.00 L 625.94 96.13 L 662.30 96.51 L 688.67 97.16 L 710.07 98.06 L 728.37 99.22 L 744.47 100.64 L 758.92 102.32 L 772.07 104.27 L 784.13 106.48 L 795.29 108.97 L 805.66 111.73 L 815.33 114.77 L 824.38 118.09 L 832.87 121.70 L 840.84 125.60 L 848.34 129.81 L 855.40 134.33 L 862.03 139.17 L 868.28 144.34 L 874.15 149.85 L 879.66 155.72 L 884.83 161.97 L 889.67 168.60 L 894.19 175.66 L 898.40 183.16 L 902.30 191.13 L 905.91 199.62 L 909.23 208.67 L 912.27 218.34 L 915.03 228.71 L 917.52 239.87 L 919.73 251.93 L 921.68 265.08 L 923.36 279.53 L 924.78 295.63 L 925.94 313.93 L 926.84 335.33 L 927.49 361.70 L 927.87 398.06 L 928.00 512.00 Z" fill="url(#flare)"/>
    <path d="M 928.00 512.00 L 927.87 625.94 L 927.49 662.30 L 926.84 688.67 L 925.94 710.07 L 924.78 728.37 L 923.36 744.47 L 921.68 758.92 L 919.73 772.07 L 917.52 784.13 L 915.03 795.29 L 912.27 805.66 L 909.23 815.33 L 905.91 824.38 L 902.30 832.87 L 898.40 840.84 L 894.19 848.34 L 889.67 855.40 L 884.83 862.03 L 879.66 868.28 L 874.15 874.15 L 868.28 879.66 L 862.03 884.83 L 855.40 889.67 L 848.34 894.19 L 840.84 898.40 L 832.87 902.30 L 824.38 905.91 L 815.33 909.23 L 805.66 912.27 L 795.29 915.03 L 784.13 917.52 L 772.07 919.73 L 758.92 921.68 L 744.47 923.36 L 728.37 924.78 L 710.07 925.94 L 688.67 926.84 L 662.30 927.49 L 625.94 927.87 L 512.00 928.00 L 398.06 927.87 L 361.70 927.49 L 335.33 926.84 L 313.93 925.94 L 295.63 924.78 L 279.53 923.36 L 265.08 921.68 L 251.93 919.73 L 239.87 917.52 L 228.71 915.03 L 218.34 912.27 L 208.67 909.23 L 199.62 905.91 L 191.13 902.30 L 183.16 898.40 L 175.66 894.19 L 168.60 889.67 L 161.97 884.83 L 155.72 879.66 L 149.85 874.15 L 144.34 868.28 L 139.17 862.03 L 134.33 855.40 L 129.81 848.34 L 125.60 840.84 L 121.70 832.87 L 118.09 824.38 L 114.77 815.33 L 111.73 805.66 L 108.97 795.29 L 106.48 784.13 L 104.27 772.07 L 102.32 758.92 L 100.64 744.47 L 99.22 728.37 L 98.06 710.07 L 97.16 688.67 L 96.51 662.30 L 96.13 625.94 L 96.00 512.00 L 96.13 398.06 L 96.51 361.70 L 97.16 335.33 L 98.06 313.93 L 99.22 295.63 L 100.64 279.53 L 102.32 265.08 L 104.27 251.93 L 106.48 239.87 L 108.97 228.71 L 111.73 218.34 L 114.77 208.67 L 118.09 199.62 L 121.70 191.13 L 125.60 183.16 L 129.81 175.66 L 134.33 168.60 L 139.17 161.97 L 144.34 155.72 L 149.85 149.85 L 155.72 144.34 L 161.97 139.17 L 168.60 134.33 L 175.66 129.81 L 183.16 125.60 L 191.13 121.70 L 199.62 118.09 L 208.67 114.77 L 218.34 111.73 L 228.71 108.97 L 239.87 106.48 L 251.93 104.27 L 265.08 102.32 L 279.53 100.64 L 295.63 99.22 L 313.93 98.06 L 335.33 97.16 L 361.70 96.51 L 398.06 96.13 L 512.00 96.00 L 625.94 96.13 L 662.30 96.51 L 688.67 97.16 L 710.07 98.06 L 728.37 99.22 L 744.47 100.64 L 758.92 102.32 L 772.07 104.27 L 784.13 106.48 L 795.29 108.97 L 805.66 111.73 L 815.33 114.77 L 824.38 118.09 L 832.87 121.70 L 840.84 125.60 L 848.34 129.81 L 855.40 134.33 L 862.03 139.17 L 868.28 144.34 L 874.15 149.85 L 879.66 155.72 L 884.83 161.97 L 889.67 168.60 L 894.19 175.66 L 898.40 183.16 L 902.30 191.13 L 905.91 199.62 L 909.23 208.67 L 912.27 218.34 L 915.03 228.71 L 917.52 239.87 L 919.73 251.93 L 921.68 265.08 L 923.36 279.53 L 924.78 295.63 L 925.94 313.93 L 926.84 335.33 L 927.49 361.70 L 927.87 398.06 L 928.00 512.00 Z" stroke="white" stroke-opacity="0.22" stroke-width="2"/>
  </g>

  <!-- subtle code rail lines -->
  <g opacity="0.22">
    <path d="M244 260H780" stroke="#DDE7FF" stroke-width="3.5" stroke-linecap="round"/>
    <path d="M244 320H716" stroke="#DDE7FF" stroke-width="3.5" stroke-linecap="round"/>
    <path d="M244 380H754" stroke="#DDE7FF" stroke-width="3.5" stroke-linecap="round"/>
  </g>

  <!-- bracket motif -->
  <g opacity="0.58" stroke="#DDE7FF" stroke-width="20" stroke-linecap="round" stroke-linejoin="round">
    <path d="M264 466L212 512L264 558"/>
    <path d="M760 466L812 512L760 558"/>
  </g>

  <!-- monospire M mark -->
  <g filter="url(#soften)">
    <path d="M320 732V346H420L512 492L604 346H704V732H606V536L550 628H474L418 536V732H320Z" fill="white"/>
  </g>

  <!-- small spark to give mac icon liveliness -->
  <circle cx="748" cy="266" r="22" fill="white" fill-opacity="0.82"/>
  <circle cx="748" cy="266" r="11" fill="#D9E5FF"/>
</svg>
